<?xml version="1.0" encoding="UTF-8" standalone="no"?>
<svg
   xmlns:dc="http://purl.org/dc/elements/1.1/"
   xmlns:cc="http://creativecommons.org/ns#"
   xmlns:rdf="http://www.w3.org/1999/02/22-rdf-syntax-ns#"
   xmlns:svg="http://www.w3.org/2000/svg"
   xmlns="http://www.w3.org/2000/svg"
   xmlns:sodipodi="http://sodipodi.sourceforge.net/DTD/sodipodi-0.dtd"
   xmlns:inkscape="http://www.inkscape.org/namespaces/inkscape"
   version="1.1"
   id="svg850"
   xml:space="preserve"
   width="476.65466"
   height="482.00534"
   viewBox="0 0 476.65466 482.00534"
   sodipodi:docname="goo-circle-version.svg"
   inkscape:version="1.0.1 (3bc2e813f5, 2020-09-07)"><metadata
     id="metadata856"><rdf:RDF><cc:Work
         rdf:about=""><dc:format>image/svg+xml</dc:format><dc:type
           rdf:resource="http://purl.org/dc/dcmitype/StillImage" /><dc:title></dc:title></cc:Work></rdf:RDF></metadata><defs
     id="defs854"><clipPath
       clipPathUnits="userSpaceOnUse"
       id="clipPath870"><path
         d="M 0,361.504 H 357.491 V 0 H 0 Z"
         id="path868" /></clipPath><clipPath
       clipPathUnits="userSpaceOnUse"
       id="clipPath918"><path
         d="m 61.0322,191.477 h 23.7427 v -8.958 H 61.0322 Z"
         id="path916" /></clipPath><clipPath
       clipPathUnits="userSpaceOnUse"
       id="clipPath970"><path
         d="m 202.532,283.037 h 23.322 v -8.958 h -23.322 z"
         id="path968" /></clipPath><clipPath
       clipPathUnits="userSpaceOnUse"
       id="clipPath996"><path
         d="M 42.8188,62.251 H 66.1401 V 53.292 H 42.8188 Z"
         id="path994" /></clipPath><clipPath
       clipPathUnits="userSpaceOnUse"
       id="clipPath1020"><path
         d="m 202.532,190.537 h 23.322 v -8.958 h -23.322 z"
         id="path1018" /></clipPath><clipPath
       clipPathUnits="userSpaceOnUse"
       id="clipPath1044"><path
         d="M 0,361.504 H 357.491 V 0 H 0 Z"
         id="path1042" /></clipPath><clipPath
       clipPathUnits="userSpaceOnUse"
       id="clipPath1056"><path
         d="m 220.884,62.25 h 23.742 v -8.958 h -23.742 z"
         id="path1054" /></clipPath></defs><sodipodi:namedview
     pagecolor="#ffffff"
     bordercolor="#666666"
     borderopacity="1"
     objecttolerance="10"
     gridtolerance="10"
     guidetolerance="10"
     inkscape:pageopacity="0"
     inkscape:pageshadow="2"
     inkscape:window-width="3440"
     inkscape:window-height="1361"
     id="namedview852"
     showgrid="false"
     inkscape:zoom="2.0912631"
     inkscape:cx="238.32733"
     inkscape:cy="250.23943"
     inkscape:window-x="-9"
     inkscape:window-y="-9"
     inkscape:window-maximized="1"
     inkscape:current-layer="g858" /><g
     id="g858"
     inkscape:groupmode="layer"
     inkscape:label="goo-circle-version"
     transform="matrix(1.3333333,0,0,-1.3333333,0,482.00533)"><path
       d="m 179.8358,336.35444 c 82.94884,0 150.20397,-67.24673 150.20397,-150.21238 0,-82.94883 -67.25513,-150.203968 -150.20397,-150.203968 -82.957244,0 -150.203971,67.255138 -150.203971,150.203968 0,82.96565 67.246727,150.21238 150.203971,150.21238 m 18.09778,-143.46249 c -0.95827,-5.06031 -0.67247,-10.70063 0.89942,-15.88704 1.44581,-4.74089 3.96756,-9.11193 7.60729,-12.27252 1.74841,-1.52987 3.749,-2.79074 5.98496,-3.70698 v 0.008 c 2.11827,-0.86581 4.44669,-1.42059 6.98525,-1.59711 3.67335,-0.25218 7.79221,0.26058 12.35659,1.77363 4.27016,1.40377 8.90178,3.66495 13.88644,6.93482 v 0 l 1.7232,1.13479 0.67247,0.44551 0.69768,-0.40348 1.80726,-1.02552 c 2.16871,-1.23566 4.20292,-2.1687 6.10264,-2.81595 h 0.008 c 1.94175,-0.67247 3.7406,-1.04233 5.39655,-1.1516 1.53826,-0.10928 2.96726,0.0168 4.27016,0.33623 1.36175,0.32783 2.61422,0.89102 3.74901,1.62233 3.56407,2.28639 6.37163,5.39655 8.46468,9.03628 3.8835,6.75829 5.34611,15.38268 4.69046,24.10795 -0.64725,8.75048 -3.42118,17.57661 -8.00236,24.70476 -3.13538,4.8838 -7.11975,8.96904 -11.83543,11.67572 v 0 c -4.43828,2.54697 -8.61598,3.93393 -12.55832,4.72408 -3.97596,0.79855 -7.78381,1.01711 -11.41513,1.21885 -3.55567,0.19333 -6.96845,0.38667 -10.356,1.03391 -3.42958,0.64725 -6.80033,1.77364 -10.20469,3.83307 -2.16871,1.3029 -3.92553,2.7403 -5.48061,4.24495 -1.51305,1.47102 -2.82436,2.99248 -4.12727,4.51393 -1.46261,1.69798 -2.94204,3.42118 -4.74089,4.96786 -1.79045,1.53827 -3.95075,2.93364 -6.82554,4.06002 -1.89972,0.73971 -3.98437,1.14319 -6.12786,1.22725 -2.23596,0.0925 -4.54756,-0.15971 -6.82554,-0.73131 -2.24436,-0.57159 -4.41307,-1.4458 -6.39685,-2.61421 -1.8745,-1.10117 -3.5977,-2.47973 -5.02669,-4.10205 -1.4374,-1.62233 -2.59741,-3.15219 -3.58089,-4.57278 -0.95827,-1.39537 -1.79044,-2.74871 -2.54697,-3.97596 -4.38785,-7.16178 -6.85917,-11.19658 -21.24156,-12.33978 -8.12004,-0.65565 -15.81139,-2.81596 -22.78824,-6.22032 -7.21221,-3.51364 -13.65108,-8.3386 -19.02241,-14.15544 -5.346118,-5.80003 -9.624691,-12.60035 -12.549924,-20.07315 -2.80755,-7.1954 -4.354225,-15.02964 -4.354225,-23.23374 0,-5.41336 0.664061,-10.65861 1.933343,-15.66849 1.2945,-5.16118 3.227843,-10.0786 5.69916,-14.64297 2.513347,-4.67365 5.606696,-9.00266 9.162366,-12.88616 3.57248,-3.8919 7.61569,-7.3383 12.02876,-10.23831 v 0 l 0.78174,-0.49595 0.94146,-0.5884 v -0.008 l 0.75652,-0.45392 0.70609,-0.41188 c 0.22696,-0.0841 0.47914,-0.16812 0.73131,-0.24377 0.26058,-0.0756 0.54638,-0.15131 0.84059,-0.20174 h 0.008 c 0.32783,-0.0673 0.64725,-0.11768 0.94146,-0.15131 0.27739,-0.0252 0.60522,-0.0336 0.95826,-0.0336 1.21044,0 2.35364,0.21015 3.40437,0.61363 1.10116,0.42029 2.10146,1.03392 2.96726,1.79885 h 0.008 c 0.83218,0.73971 1.52987,1.63073 2.05944,2.62262 0.50435,0.92464 0.85739,1.94175 1.02551,3.0177 l -0.0336,0.42869 v 0.0252 l -0.0252,0.5716 v 0.042 l -0.008,0.4287 v 0.0504 l 0.008,0.4287 v 0.042 l 0.0252,0.58 v 0.0252 l 0.042,0.52116 v 0.042 l 0.042,0.36145 v 0.0504 l 0.008,0.0925 c 0.26058,2.35364 0.96667,4.57278 2.00059,6.57337 v 0.008 c 1.07595,2.05943 2.52175,3.90872 4.23654,5.44699 1.71479,1.52146 3.70698,2.7403 5.88409,3.57248 2.09306,0.79856 4.37944,1.23566 6.7583,1.23566 2.37044,0 4.65683,-0.4371 6.75829,-1.23566 2.16871,-0.83218 4.16089,-2.05102 5.87569,-3.57248 1.72319,-1.52986 3.16059,-3.38756 4.23654,-5.44699 1.04232,-2.00059 1.74001,-4.21973 2.00059,-6.57336 v -0.0168 l 0.0504,-0.47072 0.008,-0.0336 0.0336,-0.55478 v -0.0252 l 0.0336,-0.58 v -0.0336 l 0.008,-0.4371 v -0.0504 l -0.008,-0.43711 v -0.0336 l -0.0336,-0.58 v -0.0252 l -0.0336,-0.43711 c 0.16812,-1.06754 0.52116,-2.08464 1.02551,-3.00929 0.52957,-0.98348 1.23566,-1.86609 2.06784,-2.61421 0.8658,-0.76493 1.8661,-1.37856 2.96726,-1.79885 1.05914,-0.40348 2.20233,-0.61363 3.41277,-0.61363 0.35305,0 0.67247,0.008 0.94986,0.0336 h 0.008 c 0.30261,0.0252 0.61363,0.0841 0.93305,0.1429 v 0 c 0.27739,0.0504 0.55478,0.11769 0.84058,0.21015 0.24377,0.0673 0.49595,0.1513 0.7145,0.23536 l 0.68928,0.40348 v 0.008 l 0.81536,0.47913 0.91624,0.58 0.81537,0.52117 v 0 c 3.11016,2.04262 6.0438,4.37103 8.75888,6.93482 2.71509,2.56378 5.21162,5.37133 7.44758,8.36381 1.94175,2.61421 3.69857,5.39655 5.23684,8.31337 1.3029,2.46292 2.4545,5.0351 3.42958,7.68294 -1.79044,0.58001 -3.48002,1.30291 -5.09394,2.1603 -2.09305,1.12639 -4.00118,2.46292 -5.72438,3.95915 -5.0435,4.38785 -8.42265,10.50731 -9.76758,17.14792 -1.31972,6.4809 -0.68088,13.47456 2.26117,19.84619 0.61362,1.33653 1.33653,2.07624 2.02581,2.37045 0.57159,0.24377 1.11797,0.23536 1.63073,0.0252 0.4371,-0.19334 0.80696,-0.52117 1.07595,-0.95827 v 0 c 0.47072,-0.75653 0.68087,-1.95856 0.44551,-3.1606 m 5.09394,58.87451 c 2.1687,0 3.93393,-2.79914 3.93393,-6.25394 0,-3.4548 -1.76523,-6.25395 -3.93393,-6.25395 -2.17712,0 -3.93394,2.79915 -3.93394,6.25395 0,3.4548 1.75682,6.25394 3.93394,6.25394 m -18.22387,0 c 2.16871,0 3.93394,-2.79914 3.93394,-6.25394 0,-3.4548 -1.76523,-6.25395 -3.93394,-6.25395 -2.1687,0 -3.93393,2.79915 -3.93393,6.25395 0,3.4548 1.76523,6.25394 3.93393,6.25394 m 82.19231,-39.04513 c 2.09306,0 3.99278,-0.85739 5.35452,-2.22755 1.37016,-1.36174 2.21915,-3.26146 2.21915,-5.35452 h 0.008 c 0,-2.08464 -0.85739,-3.97596 -2.22755,-5.35452 -1.37015,-1.37015 -3.26987,-2.21914 -5.35452,-2.21914 -2.09305,0 -3.98436,0.84899 -5.36292,2.21914 h 0.008 c -1.37855,1.37015 -2.21914,3.26988 -2.21914,5.35452 0,2.09306 0.84059,3.98437 2.21074,5.35452 h 0.008 c 1.37856,1.37016 3.26988,2.22755 5.35452,2.22755 m 3.48002,-4.09364 c -0.88261,0.89102 -2.11827,1.4458 -3.48002,1.4458 -1.37015,0 -2.5974,-0.55478 -3.48842,-1.4458 v 0 c -0.88261,-0.89102 -1.4458,-2.12668 -1.4458,-3.48843 0,-1.36174 0.56319,-2.5974 1.4458,-3.48842 0.89943,-0.89102 2.12668,-1.4374 3.48842,-1.4374 1.35334,0 2.59741,0.54638 3.48002,1.4374 h 0.008 c 0.89102,0.89102 1.4374,2.12668 1.4374,3.48842 h 0.008 c 0,1.35334 -0.55478,2.589 -1.45421,3.48843 m -42.6008,4.09364 c 2.08465,0 3.98437,-0.85739 5.36293,-2.22755 1.37015,-1.37015 2.21073,-3.26987 2.21073,-5.35452 0,-2.09305 -0.84058,-3.98437 -2.21073,-5.35452 -1.37856,-1.37015 -3.27828,-2.21914 -5.36293,-2.21914 -2.08465,0 -3.98437,0.84899 -5.35452,2.21914 -1.37015,1.36175 -2.21914,3.26147 -2.21914,5.35452 h -0.008 c 0,2.08465 0.8574,3.98437 2.21914,5.35452 v 0 c 1.37016,1.37016 3.27828,2.22755 5.36293,2.22755 m 3.48842,-4.09364 c -0.89101,0.89102 -2.12667,1.4458 -3.48842,1.4458 -1.36175,0 -2.5974,-0.55478 -3.48842,-1.4458 v 0 c -0.89102,-0.89102 -1.4374,-2.12668 -1.4374,-3.48843 h -0.008 c 0,-1.35334 0.55479,-2.589 1.44581,-3.48842 v 0 c 0.89102,-0.89102 2.12667,-1.4374 3.48842,-1.4374 1.36175,0 2.589,0.54638 3.48842,1.4374 0.88262,0.89942 1.4374,2.12668 1.4374,3.48842 0,1.36175 -0.55478,2.59741 -1.4374,3.48843 m -163.897081,7.89308 c 0.10087,0.11768 0.20174,0.22696 0.319422,0.33624 l 0.01681,0.008 c 0.193335,0.16812 0.428698,0.31942 0.689279,0.42029 v 0.008 l 0.764932,0.31942 0.983483,0.41189 0.613627,-0.89102 0.462321,-0.68087 c 2.059431,-3.0177 4.404661,-5.09394 6.724673,-6.52294 2.84958,-1.76522 5.665536,-2.55537 7.809026,-2.90001 1.445805,2.80755 3.076538,5.52264 4.858576,8.12004 1.983778,2.86639 4.160891,5.59829 6.506121,8.13685 6.161481,6.69105 13.567031,12.2305 21.829971,16.2569 8.01076,3.90872 16.8369,6.39685 26.15898,7.14497 4.88379,0.38666 7.69134,1.21044 9.58265,2.47972 1.84088,1.25247 2.95886,3.05972 4.37104,5.36292 l 0.0252,0.0504 c 0.68928,1.12638 1.4374,2.33682 2.32842,3.66495 -1.22726,0.52116 -2.34523,1.04232 -3.35393,1.57189 -0.63044,0.32783 -1.22726,0.65565 -1.77364,0.99189 v -0.17652 l -2.11827,1.5971 c -1.10957,0.84059 -2.00899,1.68958 -2.71508,2.53857 -0.76494,0.93305 -1.31972,1.88291 -1.66436,2.81596 -0.36986,0.99188 -0.52116,1.96696 -0.46232,2.90001 0.0588,0.97508 0.34464,1.91653 0.80696,2.79074 0.27739,0.51276 0.60522,0.99189 0.99189,1.4374 l 0.008,0.008 c 0.38667,0.44551 0.82378,0.8574 1.31972,1.24407 1.66436,1.3029 3.09335,1.90812 4.34582,1.98378 1.42899,0.0925 2.58059,-0.47073 3.52205,-1.48784 0.7229,-0.76493 1.26087,-1.78203 1.68957,-2.95045 0.39508,-1.07594 0.7229,-2.26117 1.04233,-3.47161 0.25217,-0.95826 0.61362,-1.85769 1.09276,-2.68987 0.46232,-0.84899 1.05913,-1.63073 1.75682,-2.35363 0.12608,-0.1345 0.26898,-0.2774 0.42029,-0.4203 2.05102,2.27799 4.4635,4.21133 7.07772,5.77482 2.79914,1.65595 5.84206,2.89161 8.96062,3.68176 3.15219,0.79855 6.43047,1.14319 9.6331,0.99188 3.13537,-0.13449 6.1951,-0.74812 9.01946,-1.84928 1.01711,-0.39507 1.98378,-0.82377 2.8748,-1.26928 0.48754,-0.23537 0.94146,-0.47914 1.40378,-0.73131 l 0.0336,0.0588 c 0.20174,0.36145 0.38667,0.73971 0.53797,1.11798 v 0 c 0.34464,0.84058 0.60522,1.71479 0.72291,2.5974 0.13449,0.87421 0.15971,1.77363 0.0588,2.65625 -0.11769,1.16 -0.24377,2.29479 -0.25218,3.38755 -0.0168,1.16841 0.10928,2.24436 0.48754,3.169 0.49594,1.22726 1.32812,2.12668 2.63943,2.54697 h 0.008 c 1.14319,0.36986 2.61422,0.31943 4.53075,-0.26898 0.56319,-0.16812 1.10116,-0.39508 1.5887,-0.65566 v 0.008 c 0.50435,-0.26899 0.96667,-0.58001 1.38697,-0.93305 0.70609,-0.62203 1.28609,-1.36175 1.67276,-2.21074 v -0.008 c 0.36145,-0.80696 0.56319,-1.7232 0.5716,-2.7319 0.0168,-0.93305 -0.1429,-1.95016 -0.51276,-3.0261 -0.33623,-1.0003 -0.83218,-2.05103 -1.52146,-3.1606 -0.73971,-1.18522 -1.7232,-2.47132 -2.95885,-3.83306 -0.86581,-0.95827 -1.87451,-1.96697 -3.02611,-3.0093 1.89972,-1.72319 3.43799,-3.52204 4.97626,-5.30408 l 0.0673,-0.0841 c 1.08435,-1.26088 2.1603,-2.52175 3.35393,-3.69016 1.16,-1.12639 2.43769,-2.19393 3.96756,-3.11857 2.39566,-1.4458 4.92582,-2.24436 7.57366,-2.72349 2.69827,-0.48754 5.60669,-0.65566 8.6412,-0.81537 4.09365,-0.22696 8.38063,-0.47073 13.03746,-1.42899 4.69046,-0.96667 9.69194,-2.65625 15.1053,-5.758 v -0.008 c 6.09423,-3.49683 11.17136,-8.66642 15.10529,-14.78587 5.48902,-8.55715 8.7757,-18.9972 9.48179,-29.37842 0.70609,-10.40643 -1.16841,-20.77924 -5.97655,-29.15145 -2.82436,-4.90901 -6.64061,-9.12875 -11.52441,-12.26413 -1.99218,-1.27768 -4.16089,-2.24435 -6.52293,-2.83276 -2.23595,-0.55479 -4.64003,-0.78175 -7.20381,-0.60522 -2.11827,0.1513 -4.34582,0.56319 -6.68264,1.27768 -2.02581,0.63044 -4.13567,1.47103 -6.32119,2.56379 -5.12757,-3.13538 -9.98614,-5.34612 -14.55892,-6.77511 -4.78292,-1.47943 -9.25483,-2.10987 -13.36529,-2.02581 -1.17681,-3.4548 -2.60581,-6.79192 -4.26176,-9.99455 -1.82406,-3.53045 -3.94234,-6.90119 -6.29597,-10.07019 -2.56378,-3.4464 -5.42177,-6.65743 -8.53193,-9.59107 -1.33653,-1.26928 -2.7319,-2.48813 -4.1693,-3.64813 25.86477,-0.80696 43.97936,-2.66465 43.97936,-4.82495 0,-2.90843 -32.55582,-5.25366 -72.72733,-5.25366 -40.16311,0 -72.72734,2.34523 -72.72734,5.25366 0,1.05913 4.3206,2.03421 11.73455,2.85798 -3.77422,2.79074 -7.26264,5.93452 -10.423239,9.38092 -4.085238,4.44669 -7.624098,9.41454 -10.524113,14.76066 -2.832768,5.26205 -5.043504,10.90237 -6.539744,16.82849 -1.445804,5.74119 -2.227548,11.75977 -2.227548,17.94647 0,4.1693 0.353046,8.27135 1.033919,12.27253 0.630438,3.69857 1.529863,7.30467 2.689869,10.8015 -2.252766,1.21044 -4.194515,2.54697 -5.867277,3.93394 -2.277983,1.89972 -4.04321,3.87509 -5.354521,5.70756 v 0.008 c -0.664061,0.92464 -1.227253,1.82407 -1.681168,2.68146 h -0.0084 c -0.521162,0.96667 -0.916236,1.8745 -1.193629,2.66465 -0.311016,0.87421 -0.495945,1.68958 -0.537974,2.37045 -0.06725,0.89102 0.06725,1.64755 0.386669,2.16871 l 0.159711,0.26058 z m 95.952671,-99.4411 c -0.27739,0.43711 -0.53797,0.88262 -0.76493,1.33653 -1.04232,2.009 -1.74001,4.22814 -2.00899,6.57337 l -0.0504,0.38667 -0.0168,0.15971 0.0168,0.15131 0.0504,0.37826 0.0336,0.2858 0.0168,0.27739 h 0.008 v 0.19333 0.34464 0.35305 0.19333 h -0.008 l -0.0168,0.26899 -0.0336,0.2942 c -0.1345,1.17682 -0.48754,2.3032 -1.00871,3.31191 -0.54638,1.03391 -1.27768,1.97537 -2.14349,2.7403 -0.8658,0.76493 -1.86609,1.38696 -2.95885,1.79885 -1.05914,0.40348 -2.20233,0.62203 -3.41277,0.62203 -1.21044,0 -2.36204,-0.21855 -3.41277,-0.62203 -1.10117,-0.42029 -2.10146,-1.03392 -2.96727,-1.79885 -0.8658,-0.77334 -1.5887,-1.70639 -2.13508,-2.7403 -0.52957,-1.01711 -0.88261,-2.13509 -1.01711,-3.31191 l -0.0252,-0.20174 v -0.0841 l -0.0252,-0.2858 -0.008,-0.19334 v -0.34464 -0.34464 l 0.008,-0.19333 0.0252,-0.2942 0.0252,-0.2858 0.0504,-0.37827 0.0168,-0.1513 -0.0168,-0.15131 -0.0504,-0.37826 c -0.26898,-2.34523 -0.95826,-4.56437 -2.00059,-6.57337 -0.32782,-0.61362 -0.68087,-1.21044 -1.06754,-1.79044 7.68294,0.25217 16.07197,0.41189 24.8981,0.45391"
       style="fill:#000000;fill-opacity:1;fill-rule:evenodd;stroke:none;stroke-width:8.40584"
       id="path1012" /><g
       id="g1016"
       transform="matrix(8.4058409,0,0,8.4058409,-1615.2214,-1408.736)" /><path
       d="m 206.44116,164.72814 c 1.74841,-1.52146 3.74901,-2.79074 5.98496,-3.69857 2.11827,-0.8574 4.44669,-1.42059 6.98525,-1.5887 3.66495,-0.26058 7.79222,0.26058 12.35659,1.76522 4.27017,1.41218 8.90178,3.66495 13.88645,6.94323 l 1.7232,1.13479 0.67246,0.4371 0.69769,-0.40348 1.80725,-1.01711 c 2.16871,-1.24406 4.20292,-2.1687 6.11105,-2.82436 1.94175,-0.66406 3.7406,-1.04232 5.39655,-1.1516 1.53827,-0.10928 2.96726,0.0168 4.27017,0.34464 1.36174,0.32783 2.61421,0.88261 3.749,1.61392 10.44006,6.69946 12.62557,18.36676 13.18877,25.67144 -2.11828,-21.52736 -83.00768,-34.32946 -85.3361,0.93305 -1.39537,-9.54904 0.042,-20.79605 8.50671,-28.15957 m -16.24849,11.75137 c -18.29111,-38.94427 -93.649474,-31.60597 -101.971256,8.38062 -0.655656,-3.65654 -0.99189,-7.40555 -0.99189,-11.24702 0,-5.40495 0.664062,-10.6586 1.933344,-15.66008 1.294499,-5.16118 3.227843,-10.0786 5.69916,-14.65138 2.513346,-4.67365 5.606692,-9.00265 9.162362,-12.87775 3.57249,-3.8919 7.6157,-7.3467 12.02876,-10.23831 l 0.78175,-0.50435 0.94145,-0.58841 0.75653,-0.46232 0.70609,-0.40348 0.7313,-0.25218 0.84059,-0.20174 0.94986,-0.1513 0.95826,-0.0336 c 1.21045,0 2.35364,0.21856 3.40437,0.62204 1.10117,0.42029 2.10146,1.02551 2.97567,1.79885 0.82377,0.73971 1.52146,1.62232 2.05943,2.61421 0.50435,0.92465 0.85739,1.94175 1.02551,3.0177 l -0.0336,0.4287 v 0.0252 l -0.0252,0.58 v 0.0336 l -0.008,0.4287 v 0.0588 l 0.008,0.4287 v 0.0336 l 0.0252,0.58 v 0.0252 l 0.042,0.52957 v 0.0336 l 0.042,0.36986 v 0.0504 l 0.008,0.0925 c 0.26058,2.34523 0.96667,4.56437 2.00059,6.58177 1.07595,2.05943 2.52175,3.90872 4.23655,5.43858 1.71479,1.52146 3.69857,2.74871 5.88408,3.58089 2.09306,0.79856 4.37945,1.23566 6.7583,1.23566 2.37045,0 4.65684,-0.4371 6.7583,-1.23566 2.1687,-0.83218 4.16089,-2.05102 5.87568,-3.58089 1.7232,-1.52986 3.1606,-3.37915 4.23654,-5.43858 1.04233,-2.00059 1.74001,-4.22813 2.00059,-6.59018 l 0.0504,-0.47072 0.008,-0.042 0.0336,-0.54638 v -0.0252 l 0.0336,-0.58 v -0.042 l 0.008,-0.4287 v -0.0588 l -0.008,-0.4287 v -0.0336 l -0.0336,-0.58 v -0.0252 l -0.0336,-0.43711 c 0.16812,-1.07594 0.52117,-2.08464 1.02552,-3.00929 0.52957,-0.98348 1.23566,-1.8745 2.06783,-2.61421 0.86581,-0.77334 1.8661,-1.37856 2.96727,-1.79885 1.05913,-0.40348 2.20233,-0.62204 3.41277,-0.62204 l 0.95826,0.0336 0.93305,0.1429 0.84059,0.21014 0.71449,0.23537 0.68928,0.41188 0.81537,0.48754 0.91623,0.5716 0.81537,0.52116 c 3.11016,2.05103 6.0438,4.37104 8.75889,6.93482 2.71508,2.56378 5.21162,5.37133 7.44757,8.36381 1.94175,2.62262 3.69857,5.40496 5.23684,8.31338 1.30291,2.47132 2.45451,5.0351 3.42958,7.69134 -1.79044,0.5716 -3.48001,1.30291 -5.09394,2.1603 -2.09305,1.11798 -4.00118,2.45451 -5.72437,3.95915 -5.04351,4.37945 -8.42266,10.4989 -9.76759,17.14792 -0.11768,0.56319 -0.21855,1.13479 -0.30261,1.70639"
       style="opacity:0.100006;fill:#000000;fill-opacity:1;fill-rule:evenodd;stroke:none;stroke-width:8.40584"
       id="path1022" /></g></svg>
